<svg width="360" height="780" viewBox="0 0 360 780" fill="none" xmlns="http://www.w3.org/2000/svg">
  <!-- Phone Background -->
  <rect width="360" height="780" rx="0" fill="#F5F5F5"/>
  
  <!-- Status Bar (Dynamic Island) -->
  <rect x="68" y="15" width="224" height="34" rx="17" fill="#000000"/>
  
  <!-- Main Content Area Background -->
  <rect y="60" width="360" height="720" fill="#F5F5F5"/>
  
  <!-- Welcome Header -->
  <text x="24" y="110" fill="#37474F" font-family="system-ui" font-size="28" font-weight="700">Welcome, Liam!</text>
  <text x="24" y="135" fill="#9E9E9E" font-family="system-ui" font-size="15">Find professional services in Cameroon</text>
  
  <!-- Categories Section -->
  <text x="24" y="175" fill="#37474F" font-family="system-ui" font-size="20" font-weight="600">Categories</text>
  
  <!-- Category Cards Row 1 -->
  <rect x="24" y="190" width="148" height="60" rx="14" fill="#FFFFFF" stroke="#E0E0E0" stroke-width="1"/>
  <rect x="24" y="190" width="5" height="60" rx="2.5" fill="#4CAF50"/>
  <text x="38" y="225" fill="#37474F" font-family="system-ui" font-size="16" font-weight="500">Cleaning</text>
  
  <rect x="188" y="190" width="148" height="60" rx="14" fill="#FFFFFF" stroke="#E0E0E0" stroke-width="1"/>
  <rect x="188" y="190" width="5" height="60" rx="2.5" fill="#FF9800"/>
  <text x="202" y="225" fill="#37474F" font-family="system-ui" font-size="16" font-weight="500">Electrical</text>
  
  <!-- Category Cards Row 2 -->
  <rect x="24" y="260" width="148" height="60" rx="14" fill="#FFFFFF" stroke="#E0E0E0" stroke-width="1"/>
  <rect x="24" y="260" width="5" height="60" rx="2.5" fill="#2196F3"/>
  <text x="38" y="295" fill="#37474F" font-family="system-ui" font-size="16" font-weight="500">Plumbing</text>
  
  <rect x="188" y="260" width="148" height="60" rx="14" fill="#FFFFFF" stroke="#E0E0E0" stroke-width="1"/>
  <rect x="188" y="260" width="5" height="60" rx="2.5" fill="#4CAF50"/>
  <text x="202" y="295" fill="#37474F" font-family="system-ui" font-size="16" font-weight="500">Gardening</text>
  
  <!-- Category Cards Row 3 -->
  <rect x="24" y="330" width="148" height="60" rx="14" fill="#FFFFFF" stroke="#E0E0E0" stroke-width="1"/>
  <rect x="24" y="330" width="5" height="60" rx="2.5" fill="#9C27B0"/>
  <text x="38" y="365" fill="#37474F" font-family="system-ui" font-size="16" font-weight="500">Tutoring</text>
  
  <rect x="188" y="330" width="148" height="60" rx="14" fill="#FFFFFF" stroke="#E0E0E0" stroke-width="1"/>
  <rect x="188" y="330" width="5" height="60" rx="2.5" fill="#F44336"/>
  <text x="202" y="365" fill="#37474F" font-family="system-ui" font-size="16" font-weight="500">Medical</text>
  
  <!-- Featured Providers Section -->
  <text x="24" y="425" fill="#37474F" font-family="system-ui" font-size="20" font-weight="600">Featured Providers</text>
  
  <!-- Provider Card 1 - Dr. Sarah Johnson -->
  <rect x="24" y="445" width="312" height="110" rx="16" fill="#FFFFFF" stroke="#E0E0E0" stroke-width="1"/>
  
  <!-- Provider Avatar (Orange circle with DS) -->
  <circle cx="52" cy="480" r="20" fill="#FF9800"/>
  <text x="44" y="486" fill="white" font-family="system-ui" font-size="14" font-weight="700">DS</text>
  
  <!-- Online Badge -->
  <rect x="34" y="505" width="36" height="16" rx="8" fill="#4CAF50"/>
  <text x="47" y="515" fill="white" font-family="system-ui" font-size="9" font-weight="600">Online</text>
  
  <!-- Provider Name and Checkmark -->
  <text x="82" y="475" fill="#37474F" font-family="system-ui" font-size="16" font-weight="600">Dr. Sarah Johnson</text>
  <circle cx="250" cy="472" r="8" fill="#4CAF50"/>
  <text x="247" y="476" fill="white" font-family="system-ui" font-size="10">✓</text>
  
  <!-- Medical Category -->
  <text x="82" y="492" fill="#FF9800" font-family="system-ui" font-size="12" font-weight="500">Medical</text>
  
  <!-- Rating and Location -->
  <text x="82" y="510" fill="#37474F" font-family="system-ui" font-size="12">⭐ 4.8 (24)</text>
  <text x="180" y="510" fill="#9E9E9E" font-family="system-ui" font-size="12">📍 Douala</text>
  
  <!-- Price and Book Button -->
  <text x="82" y="535" fill="#37474F" font-family="system-ui" font-size="16" font-weight="700">CFA 25,000</text>
  <text x="82" y="548" fill="#9E9E9E" font-family="system-ui" font-size="10">starting from</text>
  
  <rect x="220" y="525" width="80" height="26" rx="13" fill="#2196F3"/>
  <text x="252" y="540" fill="white" font-family="system-ui" font-size="11" font-weight="600">Book Now</text>
  
  <!-- Provider Card 2 - Mike Electric -->
  <rect x="24" y="565" width="312" height="80" rx="16" fill="#FFFFFF" stroke="#E0E0E0" stroke-width="1"/>
  
  <!-- Provider Avatar (Purple circle with ME) -->
  <circle cx="48" cy="590" r="14" fill="#9C27B0"/>
  <text x="41" y="595" fill="white" font-family="system-ui" font-size="10" font-weight="700">ME</text>
  
  <!-- Provider Name and Checkmark -->
  <text x="72" y="585" fill="#37474F" font-family="system-ui" font-size="14" font-weight="600">Mike Electric</text>
  <circle cx="155" cy="582" r="6" fill="#4CAF50"/>
  <text x="152" y="586" fill="white" font-family="system-ui" font-size="8">✓</text>
  
  <!-- Electrical Category -->
  <text x="72" y="600" fill="#9C27B0" font-family="system-ui" font-size="10" font-weight="500">Electrical</text>
  
  <!-- Rating and Location -->
  <text x="72" y="615" fill="#37474F" font-family="system-ui" font-size="10">⭐ 4.9 (24)</text>
  <text x="170" y="615" fill="#9E9E9E" font-family="system-ui" font-size="10">📍 Yaoundé</text>
  
  <!-- Bottom Navigation Bar -->
  <rect y="660" width="360" height="70" fill="#FFFFFF" stroke="#E0E0E0" stroke-width="1"/>
  
  <!-- Home Tab (Active - Dark Circle) -->
  <rect x="16" y="672" width="40" height="40" rx="20" fill="#1F2937"/>
  <text x="36" y="696" fill="white" font-family="system-ui" font-size="14" text-anchor="middle">🏠</text>
  <text x="36" y="710" fill="#1F2937" font-family="system-ui" font-size="9" text-anchor="middle" font-weight="600">Home</text>
  
  <!-- Search Tab -->
  <text x="92" y="696" fill="#9E9E9E" font-family="system-ui" font-size="14" text-anchor="middle">🔍</text>
  <text x="92" y="710" fill="#9E9E9E" font-family="system-ui" font-size="9" text-anchor="middle">Search</text>
  
  <!-- Bookings Tab -->
  <text x="148" y="696" fill="#9E9E9E" font-family="system-ui" font-size="14" text-anchor="middle">📅</text>
  <text x="148" y="710" fill="#9E9E9E" font-family="system-ui" font-size="9" text-anchor="middle">Bookings</text>
  
  <!-- Messages Tab -->
  <text x="204" y="696" fill="#9E9E9E" font-family="system-ui" font-size="14" text-anchor="middle">💬</text>
  <text x="204" y="710" fill="#9E9E9E" font-family="system-ui" font-size="9" text-anchor="middle">Messages</text>
  
  <!-- Profile Tab -->
  <text x="260" y="696" fill="#9E9E9E" font-family="system-ui" font-size="14" text-anchor="middle">👤</text>
  <text x="260" y="710" fill="#9E9E9E" font-family="system-ui" font-size="9" text-anchor="middle">Profile</text>
  
  <!-- Bottom Home Indicator -->
  <rect x="135" y="740" width="90" height="4" rx="2" fill="#1F2937"/>
</svg>